<svg width="16" xmlns="http://www.w3.org/2000/svg" height="16" viewBox="-649 256 16 16" fill="none"><g data-testid="svg-path"><path d="M-645.304 262.323v-4.74c0-.322-.241-.583-.539-.583-.297 0-.538.261-.538.583v4.74c-.953.264-1.619 1.195-1.619 2.26 0 1.066.666 1.996 1.619 2.261v3.573c0 .322.241.583.538.583.298 0 .539-.261.539-.583v-3.573c.952-.265 1.619-1.195 1.619-2.261 0-1.065-.667-1.996-1.619-2.26Zm-.539 3.427c-.594 0-1.076-.522-1.076-1.167 0-.644.482-1.166 1.076-1.166.595 0 1.077.522 1.077 1.166 0 .645-.482 1.167-1.077 1.167Zm5.383-6.927v-1.24c0-.322-.241-.583-.538-.583-.297 0-.538.261-.538.583v1.24c-.953.264-1.619 1.195-1.619 2.26 0 1.066.666 1.996 1.619 2.261v7.073c0 .322.241.583.538.583.297 0 .538-.261.538-.583v-7.073c.953-.265 1.62-1.195 1.62-2.261 0-1.065-.667-1.996-1.62-2.26Zm-.538 3.427c-.594 0-1.076-.522-1.076-1.167 0-.644.482-1.166 1.076-1.166.595 0 1.077.522 1.077 1.166 0 .645-.482 1.167-1.077 1.167Zm6.998 4.667c-.001-1.064-.665-1.993-1.615-2.261v-7.073c0-.322-.241-.583-.538-.583-.297 0-.538.261-.538.583v7.073c-.953.265-1.62 1.195-1.62 2.261 0 1.065.667 1.996 1.62 2.26v1.24c0 .322.241.583.538.583.297 0 .538-.261.538-.583v-1.24c.95-.267 1.614-1.196 1.615-2.26Zm-2.153 1.166c-.595 0-1.077-.522-1.077-1.166 0-.645.482-1.167 1.077-1.167.594 0 1.076.522 1.076 1.167 0 .644-.482 1.166-1.076 1.166Z" style="fill: rgb(107, 114, 128); fill-opacity: 1;" class="fills"/><g class="strokes"><path d="M-645.304 262.323v-4.74c0-.322-.241-.583-.539-.583-.297 0-.538.261-.538.583v4.74c-.953.264-1.619 1.195-1.619 2.26 0 1.066.666 1.996 1.619 2.261v3.573c0 .322.241.583.538.583.298 0 .539-.261.539-.583v-3.573c.952-.265 1.619-1.195 1.619-2.261 0-1.065-.667-1.996-1.619-2.26Zm-.539 3.427c-.594 0-1.076-.522-1.076-1.167 0-.644.482-1.166 1.076-1.166.595 0 1.077.522 1.077 1.166 0 .645-.482 1.167-1.077 1.167Zm5.383-6.927v-1.24c0-.322-.241-.583-.538-.583-.297 0-.538.261-.538.583v1.24c-.953.264-1.619 1.195-1.619 2.26 0 1.066.666 1.996 1.619 2.261v7.073c0 .322.241.583.538.583.297 0 .538-.261.538-.583v-7.073c.953-.265 1.62-1.195 1.62-2.261 0-1.065-.667-1.996-1.62-2.26Zm-.538 3.427c-.594 0-1.076-.522-1.076-1.167 0-.644.482-1.166 1.076-1.166.595 0 1.077.522 1.077 1.166 0 .645-.482 1.167-1.077 1.167Zm6.998 4.667c-.001-1.064-.665-1.993-1.615-2.261v-7.073c0-.322-.241-.583-.538-.583-.297 0-.538.261-.538.583v7.073c-.953.265-1.62 1.195-1.62 2.261 0 1.065.667 1.996 1.62 2.26v1.24c0 .322.241.583.538.583.297 0 .538-.261.538-.583v-1.24c.95-.267 1.614-1.196 1.615-2.26Zm-2.153 1.166c-.595 0-1.077-.522-1.077-1.166 0-.645.482-1.167 1.077-1.167.594 0 1.076.522 1.076 1.167 0 .644-.482 1.166-1.076 1.166Z" style="fill: none; stroke-width: 0.5; stroke: rgb(107, 114, 128); stroke-opacity: 1;" class="stroke-shape"/></g></g></svg>