<svg width="16" xmlns="http://www.w3.org/2000/svg" height="16" viewBox="3243 349.04 16 16" fill="none"><path d="M3251.000,350.040C3247.134,350.040,3244.000,353.174,3244.000,357.040C3244.000,360.906,3247.134,364.040,3251.000,364.040C3254.866,364.040,3258.000,360.906,3258.000,357.040C3257.996,353.176,3254.864,350.044,3251.000,350.040ZZM3251.000,362.963C3247.729,362.963,3245.077,360.311,3245.077,357.040C3245.077,353.769,3247.729,351.117,3251.000,351.117C3254.271,351.117,3256.923,353.769,3256.923,357.040C3256.919,360.310,3254.270,362.959,3251.000,362.963ZZM3250.462,357.578L3250.462,353.809C3250.462,353.512,3250.703,353.271,3251.000,353.271C3251.297,353.271,3251.538,353.512,3251.538,353.809L3251.538,357.578C3251.538,357.876,3251.297,358.117,3251.000,358.117C3250.703,358.117,3250.462,357.876,3250.462,357.578ZZM3251.808,360.002C3251.808,360.448,3251.446,360.809,3251.000,360.809C3250.554,360.809,3250.192,360.448,3250.192,360.002C3250.192,359.555,3250.554,359.194,3251.000,359.194C3251.446,359.194,3251.808,359.555,3251.808,360.002ZZ" style="fill: rgb(37, 99, 235); fill-opacity: 1;" class="fills"/><g class="strokes"><path d="M3251.000,350.040C3247.134,350.040,3244.000,353.174,3244.000,357.040C3244.000,360.906,3247.134,364.040,3251.000,364.040C3254.866,364.040,3258.000,360.906,3258.000,357.040C3257.996,353.176,3254.864,350.044,3251.000,350.040ZZM3251.000,362.963C3247.729,362.963,3245.077,360.311,3245.077,357.040C3245.077,353.769,3247.729,351.117,3251.000,351.117C3254.271,351.117,3256.923,353.769,3256.923,357.040C3256.919,360.310,3254.270,362.959,3251.000,362.963ZZM3250.462,357.578L3250.462,353.809C3250.462,353.512,3250.703,353.271,3251.000,353.271C3251.297,353.271,3251.538,353.512,3251.538,353.809L3251.538,357.578C3251.538,357.876,3251.297,358.117,3251.000,358.117C3250.703,358.117,3250.462,357.876,3250.462,357.578ZZM3251.808,360.002C3251.808,360.448,3251.446,360.809,3251.000,360.809C3250.554,360.809,3250.192,360.448,3250.192,360.002C3250.192,359.555,3250.554,359.194,3251.000,359.194C3251.446,359.194,3251.808,359.555,3251.808,360.002ZZ" style="fill: none; stroke-width: 0.5; stroke: rgb(37, 99, 235); stroke-opacity: 1;" class="stroke-shape"/></g></svg>