<svg width="18" xmlns="http://www.w3.org/2000/svg" height="18" viewBox="39 521.01 18 18" fill="none"><path d="M54.769,524.677L51.692,524.677L51.692,524.010C51.692,522.905,50.866,522.010,49.846,522.010L46.154,522.010C45.134,522.010,44.308,522.905,44.308,524.010L44.308,524.677L41.231,524.677C40.551,524.677,40.000,525.274,40.000,526.010L40.000,536.677C40.000,537.413,40.551,538.010,41.231,538.010L54.769,538.010C55.449,538.010,56.000,537.413,56.000,536.677L56.000,526.010C56.000,525.274,55.449,524.677,54.769,524.677ZZM45.538,524.010C45.538,523.642,45.814,523.343,46.154,523.343L49.846,523.343C50.186,523.343,50.462,523.642,50.462,524.010L50.462,524.677L45.538,524.677ZM54.769,526.010L54.769,529.477C52.692,530.702,50.365,531.344,48.000,531.343C45.635,531.344,43.308,530.703,41.231,529.478L41.231,526.010ZM54.769,536.677L41.231,536.677L41.231,530.980C43.338,532.097,45.654,532.677,48.000,532.677C50.346,532.677,52.662,532.096,54.769,530.979L54.769,536.677ZZM46.154,529.343C46.154,528.975,46.429,528.677,46.769,528.677L49.231,528.677C49.571,528.677,49.846,528.975,49.846,529.343C49.846,529.712,49.571,530.010,49.231,530.010L46.769,530.010C46.429,530.010,46.154,529.712,46.154,529.343ZZ" style="fill: rgb(107, 114, 128); fill-opacity: 1;" class="fills"/><g class="strokes"><path d="M54.769,524.677L51.692,524.677L51.692,524.010C51.692,522.905,50.866,522.010,49.846,522.010L46.154,522.010C45.134,522.010,44.308,522.905,44.308,524.010L44.308,524.677L41.231,524.677C40.551,524.677,40.000,525.274,40.000,526.010L40.000,536.677C40.000,537.413,40.551,538.010,41.231,538.010L54.769,538.010C55.449,538.010,56.000,537.413,56.000,536.677L56.000,526.010C56.000,525.274,55.449,524.677,54.769,524.677ZZM45.538,524.010C45.538,523.642,45.814,523.343,46.154,523.343L49.846,523.343C50.186,523.343,50.462,523.642,50.462,524.010L50.462,524.677L45.538,524.677ZM54.769,526.010L54.769,529.477C52.692,530.702,50.365,531.344,48.000,531.343C45.635,531.344,43.308,530.703,41.231,529.478L41.231,526.010ZM54.769,536.677L41.231,536.677L41.231,530.980C43.338,532.097,45.654,532.677,48.000,532.677C50.346,532.677,52.662,532.096,54.769,530.979L54.769,536.677ZZM46.154,529.343C46.154,528.975,46.429,528.677,46.769,528.677L49.231,528.677C49.571,528.677,49.846,528.975,49.846,529.343C49.846,529.712,49.571,530.010,49.231,530.010L46.769,530.010C46.429,530.010,46.154,529.712,46.154,529.343ZZ" style="fill: none; stroke-width: 0.5; stroke: rgb(107, 114, 128); stroke-opacity: 1;" class="stroke-shape"/></g></svg>