<svg width="16" xmlns="http://www.w3.org/2000/svg" height="16" viewBox="3232 192.515 16 16" fill="none"><path d="M3240.000,192.515C3235.582,192.515,3232.000,196.097,3232.000,200.515C3232.000,204.933,3235.582,208.515,3240.000,208.515C3244.418,208.515,3248.000,204.933,3248.000,200.515C3247.995,196.099,3244.416,192.520,3240.000,192.515ZZM3243.512,199.104L3239.205,203.412C3239.089,203.527,3238.933,203.592,3238.769,203.592C3238.606,203.592,3238.449,203.527,3238.334,203.412L3236.488,201.566C3236.247,201.325,3236.247,200.935,3236.488,200.695C3236.728,200.455,3237.118,200.455,3237.358,200.695L3238.769,202.107L3242.642,198.233C3242.882,197.993,3243.272,197.993,3243.512,198.233C3243.753,198.474,3243.753,198.864,3243.512,199.104ZZ" style="fill: rgb(57, 183, 36); fill-opacity: 1;" class="fills"/></svg>