<svg width="16" xmlns="http://www.w3.org/2000/svg" height="16" viewBox="3819 206.51 16 16" fill="none"><path d="M3827.000,207.510C3823.134,207.510,3820.000,210.644,3820.000,214.510C3820.000,218.376,3823.134,221.510,3827.000,221.510C3830.866,221.510,3834.000,218.376,3834.000,214.510C3833.996,210.646,3830.864,207.514,3827.000,207.510ZZM3827.000,220.433C3823.729,220.433,3821.077,217.781,3821.077,214.510C3821.077,211.239,3823.729,208.587,3827.000,208.587C3830.271,208.587,3832.923,211.239,3832.923,214.510C3832.919,217.780,3830.270,220.429,3827.000,220.433ZZ" style="fill: rgb(107, 114, 128); fill-opacity: 1;" class="fills"/><g class="strokes"><path d="M3827.000,207.510C3823.134,207.510,3820.000,210.644,3820.000,214.510C3820.000,218.376,3823.134,221.510,3827.000,221.510C3830.866,221.510,3834.000,218.376,3834.000,214.510C3833.996,210.646,3830.864,207.514,3827.000,207.510ZZM3827.000,220.433C3823.729,220.433,3821.077,217.781,3821.077,214.510C3821.077,211.239,3823.729,208.587,3827.000,208.587C3830.271,208.587,3832.923,211.239,3832.923,214.510C3832.919,217.780,3830.270,220.429,3827.000,220.433ZZ" style="fill: none; stroke-width: 0.5; stroke: rgb(107, 114, 128); stroke-opacity: 1;" class="stroke-shape"/></g></svg>