<svg width="16" xmlns="http://www.w3.org/2000/svg" height="16" viewBox="3231 233.525 16 16" fill="none"><path d="M3244.833,235.602L3243.083,235.602L3243.083,235.063C3243.083,234.766,3242.822,234.525,3242.500,234.525C3242.178,234.525,3241.917,234.766,3241.917,235.063L3241.917,235.602L3236.083,235.602L3236.083,235.063C3236.083,234.766,3235.822,234.525,3235.500,234.525C3235.178,234.525,3234.917,234.766,3234.917,235.063L3234.917,235.602L3233.167,235.602C3232.522,235.602,3232.000,236.084,3232.000,236.679L3232.000,247.448C3232.000,248.043,3232.522,248.525,3233.167,248.525L3244.833,248.525C3245.478,248.525,3246.000,248.043,3246.000,247.448L3246.000,236.679C3246.000,236.084,3245.478,235.602,3244.833,235.602ZZM3234.917,236.679L3234.917,237.217C3234.917,237.515,3235.178,237.756,3235.500,237.756C3235.822,237.756,3236.083,237.515,3236.083,237.217L3236.083,236.679L3241.917,236.679L3241.917,237.217C3241.917,237.515,3242.178,237.756,3242.500,237.756C3242.822,237.756,3243.083,237.515,3243.083,237.217L3243.083,236.679L3244.833,236.679L3244.833,238.833L3233.167,238.833L3233.167,236.679ZM3244.833,247.448L3233.167,247.448L3233.167,239.910L3244.833,239.910L3244.833,247.448ZZM3240.167,243.679C3240.167,244.274,3239.644,244.756,3239.000,244.756C3238.356,244.756,3237.833,244.274,3237.833,243.679C3237.833,243.084,3238.356,242.602,3239.000,242.602C3239.644,242.602,3240.167,243.084,3240.167,243.679ZZ" style="fill: rgb(107, 114, 128); fill-opacity: 1;" class="fills"/><g class="strokes"><path d="M3244.833,235.602L3243.083,235.602L3243.083,235.063C3243.083,234.766,3242.822,234.525,3242.500,234.525C3242.178,234.525,3241.917,234.766,3241.917,235.063L3241.917,235.602L3236.083,235.602L3236.083,235.063C3236.083,234.766,3235.822,234.525,3235.500,234.525C3235.178,234.525,3234.917,234.766,3234.917,235.063L3234.917,235.602L3233.167,235.602C3232.522,235.602,3232.000,236.084,3232.000,236.679L3232.000,247.448C3232.000,248.043,3232.522,248.525,3233.167,248.525L3244.833,248.525C3245.478,248.525,3246.000,248.043,3246.000,247.448L3246.000,236.679C3246.000,236.084,3245.478,235.602,3244.833,235.602ZZM3234.917,236.679L3234.917,237.217C3234.917,237.515,3235.178,237.756,3235.500,237.756C3235.822,237.756,3236.083,237.515,3236.083,237.217L3236.083,236.679L3241.917,236.679L3241.917,237.217C3241.917,237.515,3242.178,237.756,3242.500,237.756C3242.822,237.756,3243.083,237.515,3243.083,237.217L3243.083,236.679L3244.833,236.679L3244.833,238.833L3233.167,238.833L3233.167,236.679ZM3244.833,247.448L3233.167,247.448L3233.167,239.910L3244.833,239.910L3244.833,247.448ZZM3240.167,243.679C3240.167,244.274,3239.644,244.756,3239.000,244.756C3238.356,244.756,3237.833,244.274,3237.833,243.679C3237.833,243.084,3238.356,242.602,3239.000,242.602C3239.644,242.602,3240.167,243.084,3240.167,243.679ZZ" style="fill: none; stroke-width: 0.5; stroke: rgb(107, 114, 128); stroke-opacity: 1;" class="stroke-shape"/></g></svg>