<svg width="14" xmlns="http://www.w3.org/2000/svg" height="8" viewBox="1903 302.01 14 8" fill="none"><path d="M1915.840,303.864L1910.386,308.863C1910.284,308.957,1910.145,309.010,1910.000,309.010C1909.855,309.010,1909.716,308.957,1909.614,308.863L1904.160,303.864C1903.947,303.669,1903.947,303.352,1904.160,303.157C1904.373,302.961,1904.718,302.961,1904.932,303.157L1910.000,307.803L1915.068,303.157C1915.282,302.961,1915.627,302.961,1915.840,303.157C1916.053,303.352,1916.053,303.669,1915.840,303.864ZZ" style="fill: rgb(107, 114, 128); fill-opacity: 1;" class="fills"/><g class="strokes"><path d="M1915.840,303.864L1910.386,308.863C1910.284,308.957,1910.145,309.010,1910.000,309.010C1909.855,309.010,1909.716,308.957,1909.614,308.863L1904.160,303.864C1903.947,303.669,1903.947,303.352,1904.160,303.157C1904.373,302.961,1904.718,302.961,1904.932,303.157L1910.000,307.803L1915.068,303.157C1915.282,302.961,1915.627,302.961,1915.840,303.157C1916.053,303.352,1916.053,303.669,1915.840,303.864ZZ" style="fill: none; stroke-width: 0.5; stroke: rgb(107, 114, 128); stroke-opacity: 1;" class="stroke-shape"/></g></svg>