<svg width="18" xmlns="http://www.w3.org/2000/svg" height="18" viewBox="39 288 18 18" fill="none"><path d="M54.667,290.231L52.667,290.231L52.667,289.615C52.667,289.276,52.368,289.000,52.000,289.000C51.632,289.000,51.333,289.276,51.333,289.615L51.333,290.231L44.667,290.231L44.667,289.615C44.667,289.276,44.368,289.000,44.000,289.000C43.632,289.000,43.333,289.276,43.333,289.615L43.333,290.231L41.333,290.231C40.597,290.231,40.000,290.782,40.000,291.462L40.000,303.769C40.000,304.449,40.597,305.000,41.333,305.000L54.667,305.000C55.403,305.000,56.000,304.449,56.000,303.769L56.000,291.462C56.000,290.782,55.403,290.231,54.667,290.231ZZM43.333,291.462L43.333,292.077C43.333,292.417,43.632,292.692,44.000,292.692C44.368,292.692,44.667,292.417,44.667,292.077L44.667,291.462L51.333,291.462L51.333,292.077C51.333,292.417,51.632,292.692,52.000,292.692C52.368,292.692,52.667,292.417,52.667,292.077L52.667,291.462L54.667,291.462L54.667,293.923L41.333,293.923L41.333,291.462ZM54.667,303.769L41.333,303.769L41.333,295.154L54.667,295.154L54.667,303.769ZZM49.000,297.923C49.000,298.433,48.552,298.846,48.000,298.846C47.448,298.846,47.000,298.433,47.000,297.923C47.000,297.413,47.448,297.000,48.000,297.000C48.552,297.000,49.000,297.413,49.000,297.923ZZM52.667,297.923C52.667,298.433,52.219,298.846,51.667,298.846C51.114,298.846,50.667,298.433,50.667,297.923C50.667,297.413,51.114,297.000,51.667,297.000C52.219,297.000,52.667,297.413,52.667,297.923ZZM45.333,301.000C45.333,301.510,44.886,301.923,44.333,301.923C43.781,301.923,43.333,301.510,43.333,301.000C43.333,300.490,43.781,300.077,44.333,300.077C44.886,300.077,45.333,300.490,45.333,301.000ZZM49.000,301.000C49.000,301.510,48.552,301.923,48.000,301.923C47.448,301.923,47.000,301.510,47.000,301.000C47.000,300.490,47.448,300.077,48.000,300.077C48.552,300.077,49.000,300.490,49.000,301.000ZZM52.667,301.000C52.667,301.510,52.219,301.923,51.667,301.923C51.114,301.923,50.667,301.510,50.667,301.000C50.667,300.490,51.114,300.077,51.667,300.077C52.219,300.077,52.667,300.490,52.667,301.000ZZ" style="fill: rgb(107, 114, 128); fill-opacity: 1;" class="fills"/><g class="strokes"><path d="M54.667,290.231L52.667,290.231L52.667,289.615C52.667,289.276,52.368,289.000,52.000,289.000C51.632,289.000,51.333,289.276,51.333,289.615L51.333,290.231L44.667,290.231L44.667,289.615C44.667,289.276,44.368,289.000,44.000,289.000C43.632,289.000,43.333,289.276,43.333,289.615L43.333,290.231L41.333,290.231C40.597,290.231,40.000,290.782,40.000,291.462L40.000,303.769C40.000,304.449,40.597,305.000,41.333,305.000L54.667,305.000C55.403,305.000,56.000,304.449,56.000,303.769L56.000,291.462C56.000,290.782,55.403,290.231,54.667,290.231ZZM43.333,291.462L43.333,292.077C43.333,292.417,43.632,292.692,44.000,292.692C44.368,292.692,44.667,292.417,44.667,292.077L44.667,291.462L51.333,291.462L51.333,292.077C51.333,292.417,51.632,292.692,52.000,292.692C52.368,292.692,52.667,292.417,52.667,292.077L52.667,291.462L54.667,291.462L54.667,293.923L41.333,293.923L41.333,291.462ZM54.667,303.769L41.333,303.769L41.333,295.154L54.667,295.154L54.667,303.769ZZM49.000,297.923C49.000,298.433,48.552,298.846,48.000,298.846C47.448,298.846,47.000,298.433,47.000,297.923C47.000,297.413,47.448,297.000,48.000,297.000C48.552,297.000,49.000,297.413,49.000,297.923ZZM52.667,297.923C52.667,298.433,52.219,298.846,51.667,298.846C51.114,298.846,50.667,298.433,50.667,297.923C50.667,297.413,51.114,297.000,51.667,297.000C52.219,297.000,52.667,297.413,52.667,297.923ZZM45.333,301.000C45.333,301.510,44.886,301.923,44.333,301.923C43.781,301.923,43.333,301.510,43.333,301.000C43.333,300.490,43.781,300.077,44.333,300.077C44.886,300.077,45.333,300.490,45.333,301.000ZZM49.000,301.000C49.000,301.510,48.552,301.923,48.000,301.923C47.448,301.923,47.000,301.510,47.000,301.000C47.000,300.490,47.448,300.077,48.000,300.077C48.552,300.077,49.000,300.490,49.000,301.000ZZM52.667,301.000C52.667,301.510,52.219,301.923,51.667,301.923C51.114,301.923,50.667,301.510,50.667,301.000C50.667,300.490,51.114,300.077,51.667,300.077C52.219,300.077,52.667,300.490,52.667,301.000ZZ" style="fill: none; stroke-width: 0.5; stroke: rgb(107, 114, 128); stroke-opacity: 1;" class="stroke-shape"/></g></svg>