<svg width="18" xmlns="http://www.w3.org/2000/svg" height="18" viewBox="39 248 18 18" fill="none"><path d="M54.667,250.231L52.667,250.231L52.667,249.615C52.667,249.276,52.368,249.000,52.000,249.000C51.632,249.000,51.333,249.276,51.333,249.615L51.333,250.231L44.667,250.231L44.667,249.615C44.667,249.276,44.368,249.000,44.000,249.000C43.632,249.000,43.333,249.276,43.333,249.615L43.333,250.231L41.333,250.231C40.597,250.231,40.000,250.782,40.000,251.462L40.000,263.769C40.000,264.449,40.597,265.000,41.333,265.000L54.667,265.000C55.403,265.000,56.000,264.449,56.000,263.769L56.000,251.462C56.000,250.782,55.403,250.231,54.667,250.231ZZM54.667,263.769L41.333,263.769L41.333,251.462L43.333,251.462L43.333,252.077C43.333,252.417,43.632,252.692,44.000,252.692C44.368,252.692,44.667,252.417,44.667,252.077L44.667,251.462L51.333,251.462L51.333,252.077C51.333,252.417,51.632,252.692,52.000,252.692C52.368,252.692,52.667,252.417,52.667,252.077L52.667,251.462L54.667,251.462L54.667,263.769ZZM52.052,256.511L49.565,256.333L48.612,254.295C48.507,254.069,48.266,253.922,48.000,253.922C47.734,253.922,47.493,254.069,47.388,254.295L46.435,256.333L43.948,256.511C43.678,256.530,43.447,256.700,43.365,256.939C43.283,257.178,43.367,257.439,43.576,257.598L45.453,259.028L44.881,261.160C44.817,261.400,44.915,261.653,45.130,261.800C45.345,261.948,45.635,261.963,45.866,261.838L48.000,260.678L50.134,261.838C50.365,261.963,50.655,261.948,50.870,261.800C51.085,261.653,51.183,261.400,51.119,261.160L50.547,259.028L52.424,257.598C52.633,257.439,52.717,257.178,52.635,256.939C52.553,256.700,52.322,256.530,52.052,256.511ZZM49.376,258.326C49.178,258.477,49.091,258.719,49.152,258.948L49.444,260.035L48.338,259.434C48.130,259.320,47.870,259.320,47.662,259.434L46.556,260.035L46.848,258.948C46.909,258.719,46.822,258.477,46.624,258.326L45.698,257.620L46.939,257.532C47.186,257.514,47.402,257.372,47.500,257.162L48.000,256.092L48.500,257.162C48.598,257.372,48.814,257.514,49.061,257.532L50.302,257.620Z" style="fill: rgb(107, 114, 128); fill-opacity: 1;" class="fills"/><g class="strokes"><path d="M54.667,250.231L52.667,250.231L52.667,249.615C52.667,249.276,52.368,249.000,52.000,249.000C51.632,249.000,51.333,249.276,51.333,249.615L51.333,250.231L44.667,250.231L44.667,249.615C44.667,249.276,44.368,249.000,44.000,249.000C43.632,249.000,43.333,249.276,43.333,249.615L43.333,250.231L41.333,250.231C40.597,250.231,40.000,250.782,40.000,251.462L40.000,263.769C40.000,264.449,40.597,265.000,41.333,265.000L54.667,265.000C55.403,265.000,56.000,264.449,56.000,263.769L56.000,251.462C56.000,250.782,55.403,250.231,54.667,250.231ZZM54.667,263.769L41.333,263.769L41.333,251.462L43.333,251.462L43.333,252.077C43.333,252.417,43.632,252.692,44.000,252.692C44.368,252.692,44.667,252.417,44.667,252.077L44.667,251.462L51.333,251.462L51.333,252.077C51.333,252.417,51.632,252.692,52.000,252.692C52.368,252.692,52.667,252.417,52.667,252.077L52.667,251.462L54.667,251.462L54.667,263.769ZZM52.052,256.511L49.565,256.333L48.612,254.295C48.507,254.069,48.266,253.922,48.000,253.922C47.734,253.922,47.493,254.069,47.388,254.295L46.435,256.333L43.948,256.511C43.678,256.530,43.447,256.700,43.365,256.939C43.283,257.178,43.367,257.439,43.576,257.598L45.453,259.028L44.881,261.160C44.817,261.400,44.915,261.653,45.130,261.800C45.345,261.948,45.635,261.963,45.866,261.838L48.000,260.678L50.134,261.838C50.365,261.963,50.655,261.948,50.870,261.800C51.085,261.653,51.183,261.400,51.119,261.160L50.547,259.028L52.424,257.598C52.633,257.439,52.717,257.178,52.635,256.939C52.553,256.700,52.322,256.530,52.052,256.511ZZM49.376,258.326C49.178,258.477,49.091,258.719,49.152,258.948L49.444,260.035L48.338,259.434C48.130,259.320,47.870,259.320,47.662,259.434L46.556,260.035L46.848,258.948C46.909,258.719,46.822,258.477,46.624,258.326L45.698,257.620L46.939,257.532C47.186,257.514,47.402,257.372,47.500,257.162L48.000,256.092L48.500,257.162C48.598,257.372,48.814,257.514,49.061,257.532L50.302,257.620Z" style="fill: none; stroke-width: 0.5; stroke: rgb(107, 114, 128); stroke-opacity: 1;" class="stroke-shape"/></g></svg>