<svg width="18" xmlns="http://www.w3.org/2000/svg" height="18" viewBox="1611 208 18 18" fill="none"><path d="M1627.609,215.775L1620.943,209.375C1620.422,208.875,1619.578,208.875,1619.057,209.375L1612.391,215.775C1612.140,216.014,1611.999,216.340,1612.000,216.680L1612.000,224.360C1612.000,224.713,1612.298,225.000,1612.667,225.000L1618.000,225.000C1618.368,225.000,1618.667,224.713,1618.667,224.360L1618.667,219.880L1621.333,219.880L1621.333,224.360C1621.333,224.713,1621.632,225.000,1622.000,225.000L1627.333,225.000C1627.702,225.000,1628.000,224.713,1628.000,224.360L1628.000,216.680C1628.001,216.340,1627.860,216.014,1627.609,215.775ZZM1626.667,223.720L1622.667,223.720L1622.667,219.240C1622.667,218.887,1622.368,218.600,1622.000,218.600L1618.000,218.600C1617.632,218.600,1617.333,218.887,1617.333,219.240L1617.333,223.720L1613.333,223.720L1613.333,216.680L1620.000,210.280L1626.667,216.680Z" style="fill: rgb(107, 114, 128); fill-opacity: 1;" class="fills"/><g class="strokes"><path d="M1627.609,215.775L1620.943,209.375C1620.422,208.875,1619.578,208.875,1619.057,209.375L1612.391,215.775C1612.140,216.014,1611.999,216.340,1612.000,216.680L1612.000,224.360C1612.000,224.713,1612.298,225.000,1612.667,225.000L1618.000,225.000C1618.368,225.000,1618.667,224.713,1618.667,224.360L1618.667,219.880L1621.333,219.880L1621.333,224.360C1621.333,224.713,1621.632,225.000,1622.000,225.000L1627.333,225.000C1627.702,225.000,1628.000,224.713,1628.000,224.360L1628.000,216.680C1628.001,216.340,1627.860,216.014,1627.609,215.775ZZM1626.667,223.720L1622.667,223.720L1622.667,219.240C1622.667,218.887,1622.368,218.600,1622.000,218.600L1618.000,218.600C1617.632,218.600,1617.333,218.887,1617.333,219.240L1617.333,223.720L1613.333,223.720L1613.333,216.680L1620.000,210.280L1626.667,216.680Z" style="fill: none; stroke-width: 0.5; stroke: rgb(107, 114, 128); stroke-opacity: 1;" class="stroke-shape"/></g></svg>