<svg width="16" xmlns="http://www.w3.org/2000/svg" height="16" viewBox="580 1366.01 16 16" fill="none"><path d="M583.696,1372.333L583.696,1367.593C583.696,1367.271,583.455,1367.010,583.157,1367.010C582.860,1367.010,582.619,1367.271,582.619,1367.593L582.619,1372.333C581.666,1372.597,581.000,1373.528,581.000,1374.593C581.000,1375.659,581.666,1376.589,582.619,1376.854L582.619,1380.427C582.619,1380.749,582.860,1381.010,583.157,1381.010C583.455,1381.010,583.696,1380.749,583.696,1380.427L583.696,1376.854C584.648,1376.589,585.315,1375.659,585.315,1374.593C585.315,1373.528,584.648,1372.597,583.696,1372.333ZZM583.157,1375.760C582.563,1375.760,582.081,1375.238,582.081,1374.593C582.081,1373.949,582.563,1373.427,583.157,1373.427C583.752,1373.427,584.234,1373.949,584.234,1374.593C584.234,1375.238,583.752,1375.760,583.157,1375.760ZZM588.540,1368.833L588.540,1367.593C588.540,1367.271,588.299,1367.010,588.002,1367.010C587.705,1367.010,587.464,1367.271,587.464,1367.593L587.464,1368.833C586.511,1369.097,585.845,1370.028,585.845,1371.093C585.845,1372.159,586.511,1373.089,587.464,1373.354L587.464,1380.427C587.464,1380.749,587.705,1381.010,588.002,1381.010C588.299,1381.010,588.540,1380.749,588.540,1380.427L588.540,1373.354C589.493,1373.089,590.160,1372.159,590.160,1371.093C590.160,1370.028,589.493,1369.097,588.540,1368.833ZZM588.002,1372.260C587.408,1372.260,586.926,1371.738,586.926,1371.093C586.926,1370.449,587.408,1369.927,588.002,1369.927C588.597,1369.927,589.079,1370.449,589.079,1371.093C589.079,1371.738,588.597,1372.260,588.002,1372.260ZZM595.000,1376.927C594.999,1375.863,594.335,1374.934,593.385,1374.666L593.385,1367.593C593.385,1367.271,593.144,1367.010,592.847,1367.010C592.550,1367.010,592.309,1367.271,592.309,1367.593L592.309,1374.666C591.356,1374.931,590.689,1375.861,590.689,1376.927C590.689,1377.992,591.356,1378.923,592.309,1379.187L592.309,1380.427C592.309,1380.749,592.550,1381.010,592.847,1381.010C593.144,1381.010,593.385,1380.749,593.385,1380.427L593.385,1379.187C594.335,1378.920,594.999,1377.991,595.000,1376.927ZZM592.847,1378.093C592.252,1378.093,591.770,1377.571,591.770,1376.927C591.770,1376.282,592.252,1375.760,592.847,1375.760C593.441,1375.760,593.923,1376.282,593.923,1376.927C593.923,1377.571,593.441,1378.093,592.847,1378.093ZZ" style="fill: rgb(107, 114, 128); fill-opacity: 1;" class="fills"/><g class="strokes"><path d="M583.696,1372.333L583.696,1367.593C583.696,1367.271,583.455,1367.010,583.157,1367.010C582.860,1367.010,582.619,1367.271,582.619,1367.593L582.619,1372.333C581.666,1372.597,581.000,1373.528,581.000,1374.593C581.000,1375.659,581.666,1376.589,582.619,1376.854L582.619,1380.427C582.619,1380.749,582.860,1381.010,583.157,1381.010C583.455,1381.010,583.696,1380.749,583.696,1380.427L583.696,1376.854C584.648,1376.589,585.315,1375.659,585.315,1374.593C585.315,1373.528,584.648,1372.597,583.696,1372.333ZZM583.157,1375.760C582.563,1375.760,582.081,1375.238,582.081,1374.593C582.081,1373.949,582.563,1373.427,583.157,1373.427C583.752,1373.427,584.234,1373.949,584.234,1374.593C584.234,1375.238,583.752,1375.760,583.157,1375.760ZZM588.540,1368.833L588.540,1367.593C588.540,1367.271,588.299,1367.010,588.002,1367.010C587.705,1367.010,587.464,1367.271,587.464,1367.593L587.464,1368.833C586.511,1369.097,585.845,1370.028,585.845,1371.093C585.845,1372.159,586.511,1373.089,587.464,1373.354L587.464,1380.427C587.464,1380.749,587.705,1381.010,588.002,1381.010C588.299,1381.010,588.540,1380.749,588.540,1380.427L588.540,1373.354C589.493,1373.089,590.160,1372.159,590.160,1371.093C590.160,1370.028,589.493,1369.097,588.540,1368.833ZZM588.002,1372.260C587.408,1372.260,586.926,1371.738,586.926,1371.093C586.926,1370.449,587.408,1369.927,588.002,1369.927C588.597,1369.927,589.079,1370.449,589.079,1371.093C589.079,1371.738,588.597,1372.260,588.002,1372.260ZZM595.000,1376.927C594.999,1375.863,594.335,1374.934,593.385,1374.666L593.385,1367.593C593.385,1367.271,593.144,1367.010,592.847,1367.010C592.550,1367.010,592.309,1367.271,592.309,1367.593L592.309,1374.666C591.356,1374.931,590.689,1375.861,590.689,1376.927C590.689,1377.992,591.356,1378.923,592.309,1379.187L592.309,1380.427C592.309,1380.749,592.550,1381.010,592.847,1381.010C593.144,1381.010,593.385,1380.749,593.385,1380.427L593.385,1379.187C594.335,1378.920,594.999,1377.991,595.000,1376.927ZZM592.847,1378.093C592.252,1378.093,591.770,1377.571,591.770,1376.927C591.770,1376.282,592.252,1375.760,592.847,1375.760C593.441,1375.760,593.923,1376.282,593.923,1376.927C593.923,1377.571,593.441,1378.093,592.847,1378.093ZZ" style="fill: none; stroke-width: 0.5; stroke: rgb(107, 114, 128); stroke-opacity: 1;" class="stroke-shape"/></g></svg>