<svg width="18" xmlns="http://www.w3.org/2000/svg" height="18" viewBox="39 2024.07 18 18" fill="none"><path d="M48.001,2029.378C46.107,2029.378,44.572,2031.031,44.572,2033.070C44.572,2035.109,46.107,2036.761,48.001,2036.761C49.894,2036.761,51.429,2035.109,51.429,2033.070C51.427,2031.032,49.893,2029.381,48.001,2029.378ZZM48.001,2035.531C46.738,2035.531,45.715,2034.429,45.715,2033.070C45.715,2031.711,46.738,2030.609,48.001,2030.609C49.263,2030.609,50.286,2031.711,50.286,2033.070C50.286,2034.429,49.263,2035.531,48.001,2035.531ZZM55.853,2031.471C55.821,2031.296,55.719,2031.144,55.575,2031.056L53.445,2029.748L53.436,2027.163C53.435,2026.982,53.362,2026.812,53.234,2026.695C52.461,2025.991,51.571,2025.452,50.611,2025.105C50.458,2025.050,50.291,2025.066,50.150,2025.151L48.001,2026.444L45.849,2025.148C45.708,2025.063,45.540,2025.047,45.387,2025.102C44.428,2025.451,43.539,2025.993,42.767,2026.698C42.640,2026.814,42.566,2026.985,42.565,2027.165L42.555,2029.753L40.424,2031.060C40.280,2031.149,40.178,2031.300,40.146,2031.476C39.951,2032.531,39.951,2033.617,40.146,2034.672C40.178,2034.847,40.280,2034.999,40.424,2035.087L42.555,2036.395L42.563,2038.980C42.564,2039.160,42.638,2039.331,42.765,2039.448C43.538,2040.152,44.428,2040.691,45.388,2041.038C45.541,2041.093,45.708,2041.077,45.849,2040.992L48.001,2039.695L50.152,2040.991C50.237,2041.042,50.333,2041.069,50.431,2041.068C50.493,2041.068,50.555,2041.057,50.614,2041.036C51.573,2040.688,52.462,2040.147,53.234,2039.442C53.361,2039.325,53.435,2039.155,53.436,2038.975L53.447,2036.387L55.577,2035.080C55.722,2034.991,55.823,2034.840,55.855,2034.664C56.049,2033.610,56.048,2032.525,55.853,2031.471ZZM54.782,2034.156L52.741,2035.406C52.652,2035.460,52.578,2035.540,52.527,2035.636C52.485,2035.713,52.442,2035.795,52.398,2035.872C52.341,2035.969,52.311,2036.081,52.310,2036.195L52.300,2038.676C51.751,2039.139,51.140,2039.510,50.488,2039.775L48.429,2038.540C48.344,2038.489,48.248,2038.463,48.150,2038.463L48.136,2038.463C48.050,2038.463,47.963,2038.463,47.876,2038.463C47.774,2038.461,47.673,2038.487,47.584,2038.540L45.524,2039.779C44.870,2039.515,44.257,2039.146,43.707,2038.684L43.699,2036.208C43.698,2036.093,43.668,2035.981,43.612,2035.883C43.567,2035.806,43.524,2035.729,43.483,2035.648C43.433,2035.550,43.359,2035.469,43.269,2035.413L41.226,2034.160C41.120,2033.440,41.120,2032.706,41.226,2031.986L43.263,2030.734C43.353,2030.680,43.427,2030.600,43.477,2030.504C43.519,2030.427,43.562,2030.345,43.607,2030.268C43.663,2030.171,43.694,2030.059,43.694,2029.944L43.705,2027.464C44.253,2027.000,44.864,2026.630,45.517,2026.364L47.572,2027.600C47.662,2027.653,47.763,2027.679,47.865,2027.676C47.951,2027.676,48.039,2027.676,48.125,2027.676C48.227,2027.679,48.328,2027.653,48.418,2027.600L50.478,2026.361C51.132,2026.624,51.744,2026.993,52.295,2027.456L52.303,2029.932C52.303,2030.047,52.333,2030.159,52.390,2030.257C52.434,2030.334,52.477,2030.410,52.518,2030.492C52.569,2030.590,52.643,2030.671,52.732,2030.727L54.775,2031.980C54.882,2032.701,54.884,2033.435,54.782,2034.156ZZ" style="fill: rgb(107, 114, 128); fill-opacity: 1;" class="fills"/><g class="strokes"><path d="M48.001,2029.378C46.107,2029.378,44.572,2031.031,44.572,2033.070C44.572,2035.109,46.107,2036.761,48.001,2036.761C49.894,2036.761,51.429,2035.109,51.429,2033.070C51.427,2031.032,49.893,2029.381,48.001,2029.378ZZM48.001,2035.531C46.738,2035.531,45.715,2034.429,45.715,2033.070C45.715,2031.711,46.738,2030.609,48.001,2030.609C49.263,2030.609,50.286,2031.711,50.286,2033.070C50.286,2034.429,49.263,2035.531,48.001,2035.531ZZM55.853,2031.471C55.821,2031.296,55.719,2031.144,55.575,2031.056L53.445,2029.748L53.436,2027.163C53.435,2026.982,53.362,2026.812,53.234,2026.695C52.461,2025.991,51.571,2025.452,50.611,2025.105C50.458,2025.050,50.291,2025.066,50.150,2025.151L48.001,2026.444L45.849,2025.148C45.708,2025.063,45.540,2025.047,45.387,2025.102C44.428,2025.451,43.539,2025.993,42.767,2026.698C42.640,2026.814,42.566,2026.985,42.565,2027.165L42.555,2029.753L40.424,2031.060C40.280,2031.149,40.178,2031.300,40.146,2031.476C39.951,2032.531,39.951,2033.617,40.146,2034.672C40.178,2034.847,40.280,2034.999,40.424,2035.087L42.555,2036.395L42.563,2038.980C42.564,2039.160,42.638,2039.331,42.765,2039.448C43.538,2040.152,44.428,2040.691,45.388,2041.038C45.541,2041.093,45.708,2041.077,45.849,2040.992L48.001,2039.695L50.152,2040.991C50.237,2041.042,50.333,2041.069,50.431,2041.068C50.493,2041.068,50.555,2041.057,50.614,2041.036C51.573,2040.688,52.462,2040.147,53.234,2039.442C53.361,2039.325,53.435,2039.155,53.436,2038.975L53.447,2036.387L55.577,2035.080C55.722,2034.991,55.823,2034.840,55.855,2034.664C56.049,2033.610,56.048,2032.525,55.853,2031.471ZZM54.782,2034.156L52.741,2035.406C52.652,2035.460,52.578,2035.540,52.527,2035.636C52.485,2035.713,52.442,2035.795,52.398,2035.872C52.341,2035.969,52.311,2036.081,52.310,2036.195L52.300,2038.676C51.751,2039.139,51.140,2039.510,50.488,2039.775L48.429,2038.540C48.344,2038.489,48.248,2038.463,48.150,2038.463L48.136,2038.463C48.050,2038.463,47.963,2038.463,47.876,2038.463C47.774,2038.461,47.673,2038.487,47.584,2038.540L45.524,2039.779C44.870,2039.515,44.257,2039.146,43.707,2038.684L43.699,2036.208C43.698,2036.093,43.668,2035.981,43.612,2035.883C43.567,2035.806,43.524,2035.729,43.483,2035.648C43.433,2035.550,43.359,2035.469,43.269,2035.413L41.226,2034.160C41.120,2033.440,41.120,2032.706,41.226,2031.986L43.263,2030.734C43.353,2030.680,43.427,2030.600,43.477,2030.504C43.519,2030.427,43.562,2030.345,43.607,2030.268C43.663,2030.171,43.694,2030.059,43.694,2029.944L43.705,2027.464C44.253,2027.000,44.864,2026.630,45.517,2026.364L47.572,2027.600C47.662,2027.653,47.763,2027.679,47.865,2027.676C47.951,2027.676,48.039,2027.676,48.125,2027.676C48.227,2027.679,48.328,2027.653,48.418,2027.600L50.478,2026.361C51.132,2026.624,51.744,2026.993,52.295,2027.456L52.303,2029.932C52.303,2030.047,52.333,2030.159,52.390,2030.257C52.434,2030.334,52.477,2030.410,52.518,2030.492C52.569,2030.590,52.643,2030.671,52.732,2030.727L54.775,2031.980C54.882,2032.701,54.884,2033.435,54.782,2034.156ZZ" style="fill: none; stroke-width: 0.5; stroke: rgb(107, 114, 128); stroke-opacity: 1;" class="stroke-shape"/></g></svg>