<svg width="18" xmlns="http://www.w3.org/2000/svg" height="18" viewBox="1163 1365.01 18 18" fill="none"><path d="M1179.820,1380.960L1175.972,1377.113C1178.289,1374.332,1178.008,1370.221,1175.335,1367.780C1172.662,1365.340,1168.542,1365.434,1165.983,1367.993C1163.424,1370.552,1163.330,1374.672,1165.770,1377.345C1168.211,1380.018,1172.322,1380.299,1175.103,1377.982L1178.950,1381.830C1179.190,1382.070,1179.580,1382.070,1179.820,1381.830C1180.060,1381.590,1180.060,1381.200,1179.820,1380.960ZZM1165.246,1372.789C1165.246,1369.733,1167.723,1367.256,1170.779,1367.256C1173.834,1367.256,1176.311,1369.733,1176.311,1372.789C1176.311,1375.844,1173.834,1378.321,1170.779,1378.321C1167.725,1378.318,1165.250,1375.843,1165.246,1372.789ZZ" style="fill: rgb(107, 114, 128); fill-opacity: 1;" class="fills"/><g class="strokes"><path d="M1179.820,1380.960L1175.972,1377.113C1178.289,1374.332,1178.008,1370.221,1175.335,1367.780C1172.662,1365.340,1168.542,1365.434,1165.983,1367.993C1163.424,1370.552,1163.330,1374.672,1165.770,1377.345C1168.211,1380.018,1172.322,1380.299,1175.103,1377.982L1178.950,1381.830C1179.190,1382.070,1179.580,1382.070,1179.820,1381.830C1180.060,1381.590,1180.060,1381.200,1179.820,1380.960ZZM1165.246,1372.789C1165.246,1369.733,1167.723,1367.256,1170.779,1367.256C1173.834,1367.256,1176.311,1369.733,1176.311,1372.789C1176.311,1375.844,1173.834,1378.321,1170.779,1378.321C1167.725,1378.318,1165.250,1375.843,1165.246,1372.789ZZ" style="fill: none; stroke-width: 0.5; stroke: rgb(107, 114, 128); stroke-opacity: 1;" class="stroke-shape"/></g></svg>