<svg width="18" xmlns="http://www.w3.org/2000/svg" height="18" viewBox="39 368 18 18" fill="none"><path d="M56.000,377.000C56.000,377.368,55.702,377.667,55.333,377.667L48.667,377.667L48.667,384.333C48.667,384.702,48.368,385.000,48.000,385.000C47.632,385.000,47.333,384.702,47.333,384.333L47.333,377.667L40.667,377.667C40.298,377.667,40.000,377.368,40.000,377.000C40.000,376.632,40.298,376.333,40.667,376.333L47.333,376.333L47.333,369.667C47.333,369.298,47.632,369.000,48.000,369.000C48.368,369.000,48.667,369.298,48.667,369.667L48.667,376.333L55.333,376.333C55.702,376.333,56.000,376.632,56.000,377.000ZZ" style="fill: rgb(37, 99, 235); fill-opacity: 1;" class="fills"/><g class="strokes"><path d="M56.000,377.000C56.000,377.368,55.702,377.667,55.333,377.667L48.667,377.667L48.667,384.333C48.667,384.702,48.368,385.000,48.000,385.000C47.632,385.000,47.333,384.702,47.333,384.333L47.333,377.667L40.667,377.667C40.298,377.667,40.000,377.368,40.000,377.000C40.000,376.632,40.298,376.333,40.667,376.333L47.333,376.333L47.333,369.667C47.333,369.298,47.632,369.000,48.000,369.000C48.368,369.000,48.667,369.298,48.667,369.667L48.667,376.333L55.333,376.333C55.702,376.333,56.000,376.632,56.000,377.000ZZ" style="fill: none; stroke-width: 0.5; stroke: rgb(37, 99, 235); stroke-opacity: 1;" class="stroke-shape"/></g></svg>