<svg width="18" xmlns="http://www.w3.org/2000/svg" height="18" viewBox="658 496.97 18 18" fill="none"><path d="M674.625,501.919L671.050,498.345C670.810,498.105,670.484,497.970,670.145,497.970C669.805,497.970,669.480,498.105,669.240,498.345L659.375,508.210C659.134,508.449,658.999,508.775,659.000,509.115L659.000,512.690C659.000,513.397,659.573,513.970,660.280,513.970L673.719,513.970C674.073,513.970,674.359,513.683,674.359,513.330C674.359,512.977,674.073,512.690,673.719,512.690L665.665,512.690L674.625,503.730C674.865,503.490,675.000,503.164,675.000,502.825C675.000,502.485,674.865,502.160,674.625,501.919ZZM663.855,512.690L660.280,512.690L660.280,509.115L667.320,502.075L670.895,505.650ZM671.800,504.745L668.225,501.170L670.145,499.250L673.719,502.825Z" style="fill: rgb(107, 114, 128); fill-opacity: 1;" class="fills"/><g class="strokes"><path d="M674.625,501.919L671.050,498.345C670.810,498.105,670.484,497.970,670.145,497.970C669.805,497.970,669.480,498.105,669.240,498.345L659.375,508.210C659.134,508.449,658.999,508.775,659.000,509.115L659.000,512.690C659.000,513.397,659.573,513.970,660.280,513.970L673.719,513.970C674.073,513.970,674.359,513.683,674.359,513.330C674.359,512.977,674.073,512.690,673.719,512.690L665.665,512.690L674.625,503.730C674.865,503.490,675.000,503.164,675.000,502.825C675.000,502.485,674.865,502.160,674.625,501.919ZZM663.855,512.690L660.280,512.690L660.280,509.115L667.320,502.075L670.895,505.650ZM671.800,504.745L668.225,501.170L670.145,499.250L673.719,502.825Z" style="fill: none; stroke-width: 0.5; stroke: rgb(107, 114, 128); stroke-opacity: 1;" class="stroke-shape"/></g></svg>