<svg width="18" xmlns="http://www.w3.org/2000/svg" height="18" viewBox="39 481.01 18 18" fill="none"><path d="M54.769,482.010L41.231,482.010C40.551,482.010,40.000,482.661,40.000,483.465L40.000,496.555C40.000,497.359,40.551,498.010,41.231,498.010L54.769,498.010C55.449,498.010,56.000,497.359,56.000,496.555L56.000,483.465C56.000,482.661,55.449,482.010,54.769,482.010ZZM54.769,483.465L54.769,484.919L41.231,484.919L41.231,483.465ZM54.769,496.555L41.231,496.555L41.231,486.374L54.769,486.374L54.769,496.555ZZM51.692,488.555C51.692,490.965,50.039,492.919,48.000,492.919C45.961,492.919,44.308,490.965,44.308,488.555C44.308,488.154,44.583,487.828,44.923,487.828C45.263,487.828,45.538,488.154,45.538,488.555C45.538,490.162,46.641,491.465,48.000,491.465C49.359,491.465,50.462,490.162,50.462,488.555C50.462,488.154,50.737,487.828,51.077,487.828C51.417,487.828,51.692,488.154,51.692,488.555ZZ" style="fill: rgb(107, 114, 128); fill-opacity: 1;" class="fills"/><g class="strokes"><path d="M54.769,482.010L41.231,482.010C40.551,482.010,40.000,482.661,40.000,483.465L40.000,496.555C40.000,497.359,40.551,498.010,41.231,498.010L54.769,498.010C55.449,498.010,56.000,497.359,56.000,496.555L56.000,483.465C56.000,482.661,55.449,482.010,54.769,482.010ZZM54.769,483.465L54.769,484.919L41.231,484.919L41.231,483.465ZM54.769,496.555L41.231,496.555L41.231,486.374L54.769,486.374L54.769,496.555ZZM51.692,488.555C51.692,490.965,50.039,492.919,48.000,492.919C45.961,492.919,44.308,490.965,44.308,488.555C44.308,488.154,44.583,487.828,44.923,487.828C45.263,487.828,45.538,488.154,45.538,488.555C45.538,490.162,46.641,491.465,48.000,491.465C49.359,491.465,50.462,490.162,50.462,488.555C50.462,488.154,50.737,487.828,51.077,487.828C51.417,487.828,51.692,488.154,51.692,488.555ZZ" style="fill: none; stroke-width: 0.5; stroke: rgb(107, 114, 128); stroke-opacity: 1;" class="stroke-shape"/></g></svg>