<svg width="18" xmlns="http://www.w3.org/2000/svg" height="18" viewBox="39 2066.07 18 18" fill="none"><path d="M49.334,2067.737C49.334,2067.368,49.632,2067.070,50.000,2067.070L55.333,2067.070C55.702,2067.070,56.000,2067.368,56.000,2067.737L56.000,2082.403C56.000,2082.772,55.702,2083.070,55.333,2083.070L50.000,2083.070C49.632,2083.070,49.334,2082.772,49.334,2082.403C49.334,2082.035,49.632,2081.737,50.000,2081.737L54.667,2081.737L54.667,2068.403L50.000,2068.403C49.632,2068.403,49.334,2068.105,49.334,2067.737ZZM40.196,2075.542L43.529,2078.875C43.789,2079.135,44.212,2079.135,44.472,2078.875C44.733,2078.615,44.733,2078.192,44.472,2077.932L42.276,2075.737L50.000,2075.737C50.368,2075.737,50.667,2075.438,50.667,2075.070C50.667,2074.702,50.368,2074.403,50.000,2074.403L42.276,2074.403L44.472,2072.208C44.733,2071.948,44.733,2071.525,44.472,2071.265C44.212,2071.005,43.789,2071.005,43.529,2071.265L40.196,2074.598C40.070,2074.723,40.000,2074.893,40.000,2075.070C40.000,2075.247,40.070,2075.417,40.196,2075.542ZZ" style="fill: rgb(107, 114, 128); fill-opacity: 1;" class="fills"/><g class="strokes"><path d="M49.334,2067.737C49.334,2067.368,49.632,2067.070,50.000,2067.070L55.333,2067.070C55.702,2067.070,56.000,2067.368,56.000,2067.737L56.000,2082.403C56.000,2082.772,55.702,2083.070,55.333,2083.070L50.000,2083.070C49.632,2083.070,49.334,2082.772,49.334,2082.403C49.334,2082.035,49.632,2081.737,50.000,2081.737L54.667,2081.737L54.667,2068.403L50.000,2068.403C49.632,2068.403,49.334,2068.105,49.334,2067.737ZZM40.196,2075.542L43.529,2078.875C43.789,2079.135,44.212,2079.135,44.472,2078.875C44.733,2078.615,44.733,2078.192,44.472,2077.932L42.276,2075.737L50.000,2075.737C50.368,2075.737,50.667,2075.438,50.667,2075.070C50.667,2074.702,50.368,2074.403,50.000,2074.403L42.276,2074.403L44.472,2072.208C44.733,2071.948,44.733,2071.525,44.472,2071.265C44.212,2071.005,43.789,2071.005,43.529,2071.265L40.196,2074.598C40.070,2074.723,40.000,2074.893,40.000,2075.070C40.000,2075.247,40.070,2075.417,40.196,2075.542ZZ" style="fill: none; stroke-width: 0.5; stroke: rgb(107, 114, 128); stroke-opacity: 1;" class="stroke-shape"/></g></svg>