<svg width="12" xmlns="http://www.w3.org/2000/svg" height="12" viewBox="401 852.02 12 12" fill="none"><path d="M411.783,857.835L407.185,853.237C407.047,853.098,406.858,853.019,406.662,853.020L402.370,853.020C402.166,853.020,402.000,853.186,402.000,853.390L402.000,857.682C401.999,857.878,402.078,858.067,402.217,858.205L406.815,862.803C406.954,862.942,407.142,863.020,407.339,863.020C407.535,863.020,407.724,862.942,407.863,862.803L411.783,858.883C411.922,858.744,412.000,858.555,412.000,858.359C412.000,858.162,411.922,857.974,411.783,857.835ZZM407.338,862.279L402.741,857.682L402.741,853.761L406.662,853.761L411.259,858.358ZM404.963,855.427C404.963,855.734,404.714,855.983,404.407,855.983C404.101,855.983,403.852,855.734,403.852,855.427C403.852,855.121,404.101,854.872,404.407,854.872C404.714,854.872,404.963,855.121,404.963,855.427ZZ" style="fill: rgb(156, 163, 175); fill-opacity: 1;" class="fills"/><g class="strokes"><path d="M411.783,857.835L407.185,853.237C407.047,853.098,406.858,853.019,406.662,853.020L402.370,853.020C402.166,853.020,402.000,853.186,402.000,853.390L402.000,857.682C401.999,857.878,402.078,858.067,402.217,858.205L406.815,862.803C406.954,862.942,407.142,863.020,407.339,863.020C407.535,863.020,407.724,862.942,407.863,862.803L411.783,858.883C411.922,858.744,412.000,858.555,412.000,858.359C412.000,858.162,411.922,857.974,411.783,857.835ZZM407.338,862.279L402.741,857.682L402.741,853.761L406.662,853.761L411.259,858.358ZM404.963,855.427C404.963,855.734,404.714,855.983,404.407,855.983C404.101,855.983,403.852,855.734,403.852,855.427C403.852,855.121,404.101,854.872,404.407,854.872C404.714,854.872,404.963,855.121,404.963,855.427ZZ" style="fill: none; stroke-width: 0.5; stroke: rgb(156, 163, 175); stroke-opacity: 1;" class="stroke-shape"/></g></svg>