<svg width="18" xmlns="http://www.w3.org/2000/svg" height="18" viewBox="692 496.97 18 18" fill="none"><path d="M708.333,500.432L693.667,500.432C693.298,500.432,693.000,500.707,693.000,501.047C693.000,501.387,693.298,501.662,693.667,501.662L694.333,501.662L694.333,512.739C694.333,513.419,694.930,513.970,695.667,513.970L706.333,513.970C707.070,513.970,707.667,513.419,707.667,512.739L707.667,501.662L708.333,501.662C708.702,501.662,709.000,501.387,709.000,501.047C709.000,500.707,708.702,500.432,708.333,500.432ZZM706.333,512.739L695.667,512.739L695.667,501.662L706.333,501.662ZM697.000,498.585C697.000,498.246,697.298,497.970,697.667,497.970L704.333,497.970C704.702,497.970,705.000,498.246,705.000,498.585C705.000,498.925,704.702,499.201,704.333,499.201L697.667,499.201C697.298,499.201,697.000,498.925,697.000,498.585ZZ" style="fill: rgb(107, 114, 128); fill-opacity: 1;" class="fills"/><g class="strokes"><path d="M708.333,500.432L693.667,500.432C693.298,500.432,693.000,500.707,693.000,501.047C693.000,501.387,693.298,501.662,693.667,501.662L694.333,501.662L694.333,512.739C694.333,513.419,694.930,513.970,695.667,513.970L706.333,513.970C707.070,513.970,707.667,513.419,707.667,512.739L707.667,501.662L708.333,501.662C708.702,501.662,709.000,501.387,709.000,501.047C709.000,500.707,708.702,500.432,708.333,500.432ZZM706.333,512.739L695.667,512.739L695.667,501.662L706.333,501.662ZM697.000,498.585C697.000,498.246,697.298,497.970,697.667,497.970L704.333,497.970C704.702,497.970,705.000,498.246,705.000,498.585C705.000,498.925,704.702,499.201,704.333,499.201L697.667,499.201C697.298,499.201,697.000,498.925,697.000,498.585ZZ" style="fill: none; stroke-width: 0.5; stroke: rgb(107, 114, 128); stroke-opacity: 1;" class="stroke-shape"/></g></svg>