<svg width="18" xmlns="http://www.w3.org/2000/svg" height="18" viewBox="39 328 18 18" fill="none"><path d="M54.667,329.000L41.333,329.000C40.597,329.000,40.000,329.597,40.000,330.333L40.000,343.667C40.000,344.403,40.597,345.000,41.333,345.000L54.667,345.000C55.403,345.000,56.000,344.403,56.000,343.667L56.000,330.333C56.000,329.597,55.403,329.000,54.667,329.000ZZM54.667,330.333L54.667,339.000L52.275,339.000C51.921,338.999,51.582,339.140,51.333,339.391L49.724,341.000L46.276,341.000L44.667,339.391C44.417,339.140,44.078,338.999,43.724,339.000L41.333,339.000L41.333,330.333ZM54.667,343.667L41.333,343.667L41.333,340.333L43.724,340.333L45.333,341.943C45.583,342.194,45.922,342.334,46.276,342.333L49.724,342.333C50.078,342.334,50.417,342.194,50.667,341.943L52.276,340.333L54.667,340.333L54.667,343.667ZZ" style="fill: rgb(107, 114, 128); fill-opacity: 1;" class="fills"/><g class="strokes"><path d="M54.667,329.000L41.333,329.000C40.597,329.000,40.000,329.597,40.000,330.333L40.000,343.667C40.000,344.403,40.597,345.000,41.333,345.000L54.667,345.000C55.403,345.000,56.000,344.403,56.000,343.667L56.000,330.333C56.000,329.597,55.403,329.000,54.667,329.000ZZM54.667,330.333L54.667,339.000L52.275,339.000C51.921,338.999,51.582,339.140,51.333,339.391L49.724,341.000L46.276,341.000L44.667,339.391C44.417,339.140,44.078,338.999,43.724,339.000L41.333,339.000L41.333,330.333ZM54.667,343.667L41.333,343.667L41.333,340.333L43.724,340.333L45.333,341.943C45.583,342.194,45.922,342.334,46.276,342.333L49.724,342.333C50.078,342.334,50.417,342.194,50.667,341.943L52.276,340.333L54.667,340.333L54.667,343.667ZZ" style="fill: none; stroke-width: 0.5; stroke: rgb(107, 114, 128); stroke-opacity: 1;" class="stroke-shape"/></g></svg>